<svg width="70" height="42" viewBox="0 0 70 42" fill="none" xmlns="http://www.w3.org/2000/svg">
<path d="M13.1462 13.1028H13.1433C10.7453 13.1028 8.80127 14.8304 8.80127 16.9615V16.964C8.80127 19.0951 10.7453 20.8227 13.1433 20.8227H13.1462C15.5442 20.8227 17.4882 19.0951 17.4882 16.964V16.9615C17.4882 14.8304 15.5442 13.1028 13.1462 13.1028Z" fill="#2196F3"/>
<path d="M45.195 11.8693C45.1882 8.90929 43.8623 6.07223 41.5074 3.97895C39.1525 1.88568 35.9604 0.706672 32.6297 0.699951V0.699951C29.298 0.705328 26.1045 1.88374 23.7484 3.97716C21.3922 6.07058 20.0655 8.90841 20.0587 11.8693V11.8693V28.1921C20.0587 28.1921 45.1922 25.7044 45.195 11.8718V11.8693Z" fill="#2196F3"/>
<path d="M0 33.5495C0.00604098 35.6091 0.929149 37.5828 2.56761 39.0394C4.20607 40.496 6.42668 41.317 8.74418 41.3231V41.3231C11.0612 41.317 13.2814 40.4963 14.9197 39.0403C16.5581 37.5843 17.4816 35.6112 17.4884 33.552V33.552V22.1943C17.4884 22.1943 0 23.9266 0 33.5495ZM8.74418 35.5844C8.2913 35.5844 7.84859 35.4651 7.47204 35.2415C7.09548 35.0179 6.80199 34.7001 6.62868 34.3282C6.45537 33.9564 6.41002 33.5472 6.49838 33.1525C6.58673 32.7577 6.80481 32.3951 7.12505 32.1105C7.44528 31.8259 7.85328 31.6321 8.29746 31.5536C8.74164 31.4751 9.20204 31.5154 9.62045 31.6694C10.0389 31.8234 10.3965 32.0843 10.6481 32.4189C10.8997 32.7535 11.034 33.147 11.034 33.5495C11.0351 33.8173 10.9767 34.0828 10.8622 34.3306C10.7476 34.5783 10.5791 34.8036 10.3664 34.9933C10.1536 35.1831 9.90081 35.3337 9.62244 35.4364C9.34407 35.5392 9.04561 35.5921 8.74418 35.5921V35.5844Z" fill="#2196F3"/>
<path d="M24.2598 31.7344V36H23.3809V31.7344H24.2598ZM25.959 33.5566V34.2422H24.0195V33.5566H25.959ZM26.1641 31.7344V32.4229H24.0195V31.7344H26.1641ZM30.1777 33.7676V33.9697C30.1777 34.2939 30.1338 34.585 30.0459 34.8428C29.958 35.1006 29.834 35.3203 29.6738 35.502C29.5137 35.6816 29.3223 35.8193 29.0996 35.915C28.8789 36.0107 28.6338 36.0586 28.3643 36.0586C28.0967 36.0586 27.8516 36.0107 27.6289 35.915C27.4082 35.8193 27.2168 35.6816 27.0547 35.502C26.8926 35.3203 26.7666 35.1006 26.6768 34.8428C26.5889 34.585 26.5449 34.2939 26.5449 33.9697V33.7676C26.5449 33.4414 26.5889 33.1504 26.6768 32.8945C26.7646 32.6367 26.8887 32.417 27.0488 32.2354C27.2109 32.0537 27.4023 31.915 27.623 31.8193C27.8457 31.7236 28.0908 31.6758 28.3584 31.6758C28.6279 31.6758 28.873 31.7236 29.0938 31.8193C29.3164 31.915 29.5078 32.0537 29.668 32.2354C29.8301 32.417 29.9551 32.6367 30.043 32.8945C30.1328 33.1504 30.1777 33.4414 30.1777 33.7676ZM29.29 33.9697V33.7617C29.29 33.5352 29.2695 33.3359 29.2285 33.1641C29.1875 32.9922 29.127 32.8477 29.0469 32.7305C28.9668 32.6133 28.8691 32.5254 28.7539 32.4668C28.6387 32.4062 28.5068 32.376 28.3584 32.376C28.21 32.376 28.0781 32.4062 27.9629 32.4668C27.8496 32.5254 27.7529 32.6133 27.6729 32.7305C27.5947 32.8477 27.5352 32.9922 27.4941 33.1641C27.4531 33.3359 27.4326 33.5352 27.4326 33.7617V33.9697C27.4326 34.1943 27.4531 34.3936 27.4941 34.5674C27.5352 34.7393 27.5957 34.8848 27.6758 35.0039C27.7559 35.1211 27.8535 35.21 27.9688 35.2705C28.084 35.3311 28.2158 35.3613 28.3643 35.3613C28.5127 35.3613 28.6445 35.3311 28.7598 35.2705C28.875 35.21 28.9717 35.1211 29.0498 35.0039C29.1279 34.8848 29.1875 34.7393 29.2285 34.5674C29.2695 34.3936 29.29 34.1943 29.29 33.9697ZM33.0312 34.8838C33.0312 34.8076 33.0195 34.7393 32.9961 34.6787C32.9746 34.6162 32.9336 34.5596 32.873 34.5088C32.8125 34.4561 32.7275 34.4043 32.6182 34.3535C32.5088 34.3027 32.3672 34.25 32.1934 34.1953C32 34.1328 31.8164 34.0625 31.6426 33.9844C31.4707 33.9062 31.3184 33.8154 31.1855 33.7119C31.0547 33.6064 30.9512 33.4844 30.875 33.3457C30.8008 33.207 30.7637 33.0459 30.7637 32.8623C30.7637 32.6846 30.8027 32.5234 30.8809 32.3789C30.959 32.2324 31.0684 32.1074 31.209 32.0039C31.3496 31.8984 31.5156 31.8174 31.707 31.7607C31.9004 31.7041 32.1123 31.6758 32.3428 31.6758C32.6572 31.6758 32.9316 31.7324 33.166 31.8457C33.4004 31.959 33.582 32.1143 33.7109 32.3115C33.8418 32.5088 33.9072 32.7344 33.9072 32.9883H33.0342C33.0342 32.8633 33.0078 32.7539 32.9551 32.6602C32.9043 32.5645 32.8262 32.4893 32.7207 32.4346C32.6172 32.3799 32.4863 32.3525 32.3281 32.3525C32.1758 32.3525 32.0488 32.376 31.9473 32.4229C31.8457 32.4678 31.7695 32.5293 31.7188 32.6074C31.668 32.6836 31.6426 32.7695 31.6426 32.8652C31.6426 32.9375 31.6602 33.0029 31.6953 33.0615C31.7324 33.1201 31.7871 33.1748 31.8594 33.2256C31.9316 33.2764 32.0205 33.3242 32.126 33.3691C32.2314 33.4141 32.3535 33.458 32.4922 33.501C32.7246 33.5713 32.9287 33.6504 33.1045 33.7383C33.2822 33.8262 33.4307 33.9248 33.5498 34.0342C33.6689 34.1436 33.7588 34.2676 33.8193 34.4062C33.8799 34.5449 33.9102 34.7021 33.9102 34.8779C33.9102 35.0635 33.874 35.2295 33.8018 35.376C33.7295 35.5225 33.625 35.6465 33.4883 35.748C33.3516 35.8496 33.1885 35.9268 32.999 35.9795C32.8096 36.0322 32.5977 36.0586 32.3633 36.0586C32.1523 36.0586 31.9443 36.0312 31.7393 35.9766C31.5342 35.9199 31.3477 35.835 31.1797 35.7217C31.0137 35.6084 30.8809 35.4639 30.7812 35.2881C30.6816 35.1123 30.6318 34.9043 30.6318 34.6641H31.5137C31.5137 34.7969 31.5342 34.9092 31.5752 35.001C31.6162 35.0928 31.6738 35.167 31.748 35.2236C31.8242 35.2803 31.9141 35.3213 32.0176 35.3467C32.123 35.3721 32.2383 35.3848 32.3633 35.3848C32.5156 35.3848 32.6406 35.3633 32.7383 35.3203C32.8379 35.2773 32.9111 35.2178 32.958 35.1416C33.0068 35.0654 33.0312 34.9795 33.0312 34.8838ZM36.415 31.7344V36H35.5391V31.7344H36.415ZM37.7275 31.7344V32.4229H34.2471V31.7344H37.7275ZM41.0908 35.3145V36H38.8203V35.3145H41.0908ZM39.1074 31.7344V36H38.2285V31.7344H39.1074ZM40.7949 33.4717V34.1396H38.8203V33.4717H40.7949ZM41.0879 31.7344V32.4229H38.8203V31.7344H41.0879ZM41.6035 31.7344H43.1943C43.5205 31.7344 43.8008 31.7832 44.0352 31.8809C44.2715 31.9785 44.4531 32.123 44.5801 32.3145C44.707 32.5059 44.7705 32.7412 44.7705 33.0205C44.7705 33.249 44.7314 33.4453 44.6533 33.6094C44.5771 33.7715 44.4688 33.9072 44.3281 34.0166C44.1895 34.124 44.0264 34.21 43.8389 34.2744L43.5605 34.4209H42.1777L42.1719 33.7354H43.2002C43.3545 33.7354 43.4824 33.708 43.584 33.6533C43.6855 33.5986 43.7617 33.5225 43.8125 33.4248C43.8652 33.3271 43.8916 33.2139 43.8916 33.085C43.8916 32.9482 43.8662 32.8301 43.8154 32.7305C43.7646 32.6309 43.6875 32.5547 43.584 32.502C43.4805 32.4492 43.3506 32.4229 43.1943 32.4229H42.4824V36H41.6035V31.7344ZM43.9883 36L43.0156 34.0986L43.9443 34.0928L44.9287 35.959V36H43.9883ZM48.6025 34.4795H47.5156V33.7939H48.6025C48.7705 33.7939 48.9072 33.7666 49.0127 33.7119C49.1182 33.6553 49.1953 33.5771 49.2441 33.4775C49.293 33.3779 49.3174 33.2656 49.3174 33.1406C49.3174 33.0137 49.293 32.8955 49.2441 32.7861C49.1953 32.6768 49.1182 32.5889 49.0127 32.5225C48.9072 32.4561 48.7705 32.4229 48.6025 32.4229H47.8203V36H46.9414V31.7344H48.6025C48.9365 31.7344 49.2227 31.7949 49.4609 31.916C49.7012 32.0352 49.8848 32.2002 50.0117 32.4111C50.1387 32.6221 50.2021 32.8633 50.2021 33.1348C50.2021 33.4102 50.1387 33.6484 50.0117 33.8496C49.8848 34.0508 49.7012 34.2061 49.4609 34.3154C49.2227 34.4248 48.9365 34.4795 48.6025 34.4795ZM53.6709 35.3145V36H51.4004V35.3145H53.6709ZM51.6875 31.7344V36H50.8086V31.7344H51.6875ZM53.375 33.4717V34.1396H51.4004V33.4717H53.375ZM53.668 31.7344V32.4229H51.4004V31.7344H53.668ZM56.1494 31.7344V36H55.2734V31.7344H56.1494ZM57.4619 31.7344V32.4229H53.9814V31.7344H57.4619ZM60.8252 35.3145V36H58.5547V35.3145H60.8252ZM58.8418 31.7344V36H57.9629V31.7344H58.8418ZM60.5293 33.4717V34.1396H58.5547V33.4717H60.5293ZM60.8223 31.7344V32.4229H58.5547V31.7344H60.8223ZM61.3379 31.7344H62.9287C63.2549 31.7344 63.5352 31.7832 63.7695 31.8809C64.0059 31.9785 64.1875 32.123 64.3145 32.3145C64.4414 32.5059 64.5049 32.7412 64.5049 33.0205C64.5049 33.249 64.4658 33.4453 64.3877 33.6094C64.3115 33.7715 64.2031 33.9072 64.0625 34.0166C63.9238 34.124 63.7607 34.21 63.5732 34.2744L63.2949 34.4209H61.9121L61.9062 33.7354H62.9346C63.0889 33.7354 63.2168 33.708 63.3184 33.6533C63.4199 33.5986 63.4961 33.5225 63.5469 33.4248C63.5996 33.3271 63.626 33.2139 63.626 33.085C63.626 32.9482 63.6006 32.8301 63.5498 32.7305C63.499 32.6309 63.4219 32.5547 63.3184 32.502C63.2148 32.4492 63.085 32.4229 62.9287 32.4229H62.2168V36H61.3379V31.7344ZM63.7227 36L62.75 34.0986L63.6787 34.0928L64.6631 35.959V36H63.7227ZM67.4023 34.8838C67.4023 34.8076 67.3906 34.7393 67.3672 34.6787C67.3457 34.6162 67.3047 34.5596 67.2441 34.5088C67.1836 34.4561 67.0986 34.4043 66.9893 34.3535C66.8799 34.3027 66.7383 34.25 66.5645 34.1953C66.3711 34.1328 66.1875 34.0625 66.0137 33.9844C65.8418 33.9062 65.6895 33.8154 65.5566 33.7119C65.4258 33.6064 65.3223 33.4844 65.2461 33.3457C65.1719 33.207 65.1348 33.0459 65.1348 32.8623C65.1348 32.6846 65.1738 32.5234 65.252 32.3789C65.3301 32.2324 65.4395 32.1074 65.5801 32.0039C65.7207 31.8984 65.8867 31.8174 66.0781 31.7607C66.2715 31.7041 66.4834 31.6758 66.7139 31.6758C67.0283 31.6758 67.3027 31.7324 67.5371 31.8457C67.7715 31.959 67.9531 32.1143 68.082 32.3115C68.2129 32.5088 68.2783 32.7344 68.2783 32.9883H67.4053C67.4053 32.8633 67.3789 32.7539 67.3262 32.6602C67.2754 32.5645 67.1973 32.4893 67.0918 32.4346C66.9883 32.3799 66.8574 32.3525 66.6992 32.3525C66.5469 32.3525 66.4199 32.376 66.3184 32.4229C66.2168 32.4678 66.1406 32.5293 66.0898 32.6074C66.0391 32.6836 66.0137 32.7695 66.0137 32.8652C66.0137 32.9375 66.0312 33.0029 66.0664 33.0615C66.1035 33.1201 66.1582 33.1748 66.2305 33.2256C66.3027 33.2764 66.3916 33.3242 66.4971 33.3691C66.6025 33.4141 66.7246 33.458 66.8633 33.501C67.0957 33.5713 67.2998 33.6504 67.4756 33.7383C67.6533 33.8262 67.8018 33.9248 67.9209 34.0342C68.04 34.1436 68.1299 34.2676 68.1904 34.4062C68.251 34.5449 68.2812 34.7021 68.2812 34.8779C68.2812 35.0635 68.2451 35.2295 68.1729 35.376C68.1006 35.5225 67.9961 35.6465 67.8594 35.748C67.7227 35.8496 67.5596 35.9268 67.3701 35.9795C67.1807 36.0322 66.9688 36.0586 66.7344 36.0586C66.5234 36.0586 66.3154 36.0312 66.1104 35.9766C65.9053 35.9199 65.7188 35.835 65.5508 35.7217C65.3848 35.6084 65.252 35.4639 65.1523 35.2881C65.0527 35.1123 65.0029 34.9043 65.0029 34.6641H65.8848C65.8848 34.7969 65.9053 34.9092 65.9463 35.001C65.9873 35.0928 66.0449 35.167 66.1191 35.2236C66.1953 35.2803 66.2852 35.3213 66.3887 35.3467C66.4941 35.3721 66.6094 35.3848 66.7344 35.3848C66.8867 35.3848 67.0117 35.3633 67.1094 35.3203C67.209 35.2773 67.2822 35.2178 67.3291 35.1416C67.3779 35.0654 67.4023 34.9795 67.4023 34.8838Z" fill="#2196F3"/>
</svg>
